<?xml version="1.0" encoding="iso-8859-1"?>
<!-- Uploaded to: SVG Repo, www.svgrepo.com, Generator: SVG Repo Mixer Tools -->
<svg version="1.1" id="Layer_1" xmlns="http://www.w3.org/2000/svg" xmlns:xlink="http://www.w3.org/1999/xlink" 
	 viewBox="0 0 512 512" xml:space="preserve">
<polygon style="fill:#E7ECED;" points="319.34,87.093 319.34,139.876 282.392,139.876 282.392,176.825 229.608,176.825 
	229.608,139.876 192.66,139.876 192.66,87.093 229.608,87.093 229.608,50.144 282.392,50.144 282.392,87.093 "/>
<path style="fill:#F4411E;" d="M419.629,7.918v211.134H308.784L256,266.557v-47.505H92.371V7.918H419.629z M319.34,139.876V87.093
	h-36.948V50.144h-52.783v36.948H192.66v52.784h36.948v36.948h52.783v-36.948H319.34z"/>
<g>
	<rect x="345.732" y="277.113" style="fill:#E7ECED;" width="158.351" height="58.062"/>
	<rect x="7.918" y="277.113" style="fill:#E7ECED;" width="158.351" height="58.062"/>
</g>
<path style="fill:#AFB6BB;" d="M504.082,335.175v36.948c0,0-5.278,131.959-248.082,131.959S7.918,372.124,7.918,372.124v-36.948
	h158.351v58.062h179.464v-58.062H504.082z"/>
<path d="M337.814,269.196V385.32H174.186V269.196H0v102.928c0.059,1.47,1.829,36.707,35.196,71.463
	c19.245,20.047,45.133,35.973,76.946,47.334C151.306,504.908,199.707,512,256,512s104.694-7.092,143.858-21.08
	c31.813-11.361,57.701-27.287,76.946-47.334c33.367-34.756,35.137-69.993,35.196-71.463V269.196H337.814z M15.835,285.031h142.515
	v42.227H15.835V285.031z M496.165,371.894c-0.151,2.139-2.782,32.089-31.638,61.609c-17.64,18.046-41.511,32.461-70.948,42.844
	c-37.282,13.15-83.57,19.818-137.578,19.818s-100.296-6.668-137.579-19.818c-29.437-10.384-53.308-24.799-70.948-42.844
	c-28.856-29.52-31.487-59.47-31.638-61.609v-28.801h142.515v58.062h195.299v-58.062h142.515v28.801H496.165z M496.165,327.258
	H353.65v-42.227h142.515V327.258z"/>
<rect x="187.381" y="438.103" width="137.237" height="15.835"/>
<path d="M248.082,284.334l63.739-57.365h115.725V0H84.454v226.969h163.629V284.334z M100.289,211.134V15.835h311.423v195.299
	H305.745l-41.828,37.645v-37.645H100.289z"/>
<path d="M290.309,147.794h36.948V79.175h-36.948V42.227h-68.619v36.948h-36.948v68.619h36.948v36.948h68.619V147.794z
	 M274.474,168.907h-36.948v-36.948h-36.948V95.01h36.948V58.062h36.948V95.01h36.948v36.948h-36.948V168.907z"/>
<rect x="372.124" y="36.948" width="21.113" height="15.835"/>
<rect x="118.763" y="36.948" width="21.113" height="15.835"/>
<rect x="118.763" y="174.186" width="21.113" height="15.835"/>
<rect x="372.124" y="174.186" width="21.113" height="15.835"/>
</svg>